<?xml version="1.0" encoding="UTF-8"?>
<!DOCTYPE svg PUBLIC "-//W3C//DTD SVG 1.1//EN" "http://www.w3.org/Graphics/SVG/1.1/DTD/svg11.dtd">
<svg xmlns="http://www.w3.org/2000/svg" version="1.1" width="512px" height="512px" style="shape-rendering:geometricPrecision; text-rendering:geometricPrecision; image-rendering:optimizeQuality; fill-rule:evenodd; clip-rule:evenodd" xmlns:xlink="http://www.w3.org/1999/xlink">
<g><path style="opacity:0.99" fill="#607c8b" d="M 232.5,-0.5 C 247.833,-0.5 263.167,-0.5 278.5,-0.5C 378.271,12.4486 449.438,64.4486 492,155.5C 502.136,180.379 508.636,206.046 511.5,232.5C 511.5,247.833 511.5,263.167 511.5,278.5C 498.551,378.271 446.551,449.438 355.5,492C 330.623,502.135 304.957,508.635 278.5,511.5C 263.167,511.5 247.833,511.5 232.5,511.5C 169.693,505.011 116.193,479.345 72,434.5C 65.6471,424.101 66.4804,414.267 74.5,405C 82.5641,398.993 91.2307,397.993 100.5,402C 160.886,460.933 232.219,480.267 314.5,460C 389.243,435.59 438.076,385.757 461,310.5C 479.996,227.174 458.83,156.008 397.5,97C 340.971,49.0349 276.305,33.0349 203.5,49C 165.97,58.5928 132.97,76.2595 104.5,102C 125.333,122.833 146.167,143.667 167,164.5C 172.799,174.409 171.299,182.909 162.5,190C 111.558,191.653 60.5584,191.986 9.5,191C 4.98004,188.978 1.6467,185.811 -0.5,181.5C -0.5,131.167 -0.5,80.8333 -0.5,30.5C 6.29763,19.8714 15.2976,17.7047 26.5,24C 42.0139,39.6807 57.6806,55.1807 73.5,70.5C 118.752,29.7118 171.752,6.04511 232.5,-0.5 Z"/></g>
<g><path style="opacity:0.996" fill="#4baf50" d="M 251.5,105.5 C 264.91,104.766 273.41,110.766 277,123.5C 277.5,160.165 277.667,196.832 277.5,233.5C 314.168,233.333 350.835,233.5 387.5,234C 400.389,237.57 406.223,246.07 405,259.5C 402.833,269 397,274.833 387.5,277C 342.167,277.667 296.833,277.667 251.5,277C 241.667,275.167 235.833,269.333 234,259.5C 233.333,214.167 233.333,168.833 234,123.5C 236.014,113.654 241.847,107.654 251.5,105.5 Z"/></g>
</svg>
