<?xml version="1.0" encoding="UTF-8"?>
<!DOCTYPE svg PUBLIC "-//W3C//DTD SVG 1.1//EN" "http://www.w3.org/Graphics/SVG/1.1/DTD/svg11.dtd">
<svg xmlns="http://www.w3.org/2000/svg" version="1.1" width="512px" height="512px" style="shape-rendering:geometricPrecision; text-rendering:geometricPrecision; image-rendering:optimizeQuality; fill-rule:evenodd; clip-rule:evenodd" xmlns:xlink="http://www.w3.org/1999/xlink">
<g><path style="opacity:0.998" fill="#1fbe65" d="M 85.5,-0.5 C 198.833,-0.5 312.167,-0.5 425.5,-0.5C 434.79,2.96315 440.29,9.62981 442,19.5C 442.667,176.833 442.667,334.167 442,491.5C 440.261,501.395 434.761,508.061 425.5,511.5C 420.833,511.5 416.167,511.5 411.5,511.5C 362.925,480.868 314.591,449.702 266.5,418C 259.167,414.667 251.833,414.667 244.5,418C 196.409,449.702 148.075,480.868 99.5,511.5C 94.8333,511.5 90.1667,511.5 85.5,511.5C 76.2254,508.05 70.7254,501.383 69,491.5C 68.3333,334.167 68.3333,176.833 69,19.5C 70.7103,9.62981 76.2103,2.96315 85.5,-0.5 Z M 158.5,58.5 C 223.168,58.3333 287.834,58.5 352.5,59C 359.423,62.7413 361.256,68.2413 358,75.5C 356.269,77.6166 354.102,79.1166 351.5,80C 287.5,80.6667 223.5,80.6667 159.5,80C 152.045,76.6429 149.879,71.1429 153,63.5C 154.73,61.5981 156.563,59.9314 158.5,58.5 Z"/></g>
</svg>
