<?xml version="1.0" encoding="UTF-8"?>
<!DOCTYPE svg PUBLIC "-//W3C//DTD SVG 1.1//EN" "http://www.w3.org/Graphics/SVG/1.1/DTD/svg11.dtd">
<svg xmlns="http://www.w3.org/2000/svg" version="1.1" width="512px" height="512px" style="shape-rendering:geometricPrecision; text-rendering:geometricPrecision; image-rendering:optimizeQuality; fill-rule:evenodd; clip-rule:evenodd" xmlns:xlink="http://www.w3.org/1999/xlink">
<g><path style="opacity:0.977" fill="#fb0005" d="M 179.5,-0.5 C 230.167,-0.5 280.833,-0.5 331.5,-0.5C 336.649,1.82738 339.816,5.82738 341,11.5C 341.5,24.1623 341.667,36.8289 341.5,49.5C 284.167,49.5 226.833,49.5 169.5,49.5C 169.333,36.8289 169.5,24.1623 170,11.5C 171.184,5.82738 174.351,1.82738 179.5,-0.5 Z"/></g>
<g><path style="opacity:0.983" fill="#fb0004" d="M 76.5,77.5 C 195.834,77.3333 315.167,77.5 434.5,78C 448.333,81.1667 456.833,89.6667 460,103.5C 460.5,117.163 460.667,130.829 460.5,144.5C 323.833,144.5 187.167,144.5 50.5,144.5C 50.3334,130.829 50.5001,117.163 51,103.5C 54.3482,89.6528 62.8482,80.9861 76.5,77.5 Z"/></g>
<g><path style="opacity:0.992" fill="#fc0004" d="M 388.5,511.5 C 299.167,511.5 209.833,511.5 120.5,511.5C 110.878,507.368 105.711,500.034 105,489.5C 97.7224,383.836 90.5558,278.17 83.5,172.5C 198.167,172.5 312.833,172.5 427.5,172.5C 419.762,279.501 411.928,386.501 404,493.5C 402.161,502.497 396.994,508.497 388.5,511.5 Z M 200.5,219.5 C 207.931,218.965 213.431,221.965 217,228.5C 217.667,298.833 217.667,369.167 217,439.5C 212.656,448.925 205.823,451.425 196.5,447C 194.083,445.337 192.25,443.171 191,440.5C 190.333,369.833 190.333,299.167 191,228.5C 193.256,224.47 196.422,221.47 200.5,219.5 Z M 303.5,219.5 C 311.415,218.873 316.915,222.206 320,229.5C 320.667,299.5 320.667,369.5 320,439.5C 314.51,449.886 306.843,451.886 297,445.5C 294.563,442.624 293.23,439.29 293,435.5C 292.333,368.167 292.333,300.833 293,233.5C 293.878,226.696 297.378,222.029 303.5,219.5 Z"/></g>
</svg>
