<?xml version="1.0" encoding="UTF-8"?>
<!DOCTYPE svg PUBLIC "-//W3C//DTD SVG 1.1//EN" "http://www.w3.org/Graphics/SVG/1.1/DTD/svg11.dtd">
<svg xmlns="http://www.w3.org/2000/svg" version="1.1" width="512px" height="512px" style="shape-rendering:geometricPrecision; text-rendering:geometricPrecision; image-rendering:optimizeQuality; fill-rule:evenodd; clip-rule:evenodd" xmlns:xlink="http://www.w3.org/1999/xlink">
<g><path style="opacity:0.986" fill="#fd4755" d="M 192.5,65.5 C 191.504,81.3246 191.17,97.3246 191.5,113.5C 189.808,123.517 183.808,128.517 173.5,128.5C 170.591,128.615 167.925,127.949 165.5,126.5C 168.699,122.768 170.866,118.435 172,113.5C 172.667,89.1667 172.667,64.8333 172,40.5C 170.482,36.151 167.982,32.4844 164.5,29.5C 177.557,23.2441 186.724,26.9107 192,40.5C 192.5,48.8267 192.666,57.16 192.5,65.5 Z"/></g>
<g><path style="opacity:0.992" fill="#fd4755" d="M 277.5,65.5 C 276.506,75.9869 276.172,86.6536 276.5,97.5C 276.666,103.509 276.499,109.509 276,115.5C 271.053,127.426 262.553,131.093 250.5,126.5C 252.076,123.074 253.909,119.74 256,116.5C 256.667,90.5 256.667,64.5 256,38.5C 254.553,34.2151 251.719,31.5484 247.5,30.5C 256.415,24.7288 264.915,25.3955 273,32.5C 275.315,35.7772 276.649,39.4438 277,43.5C 277.5,50.8258 277.666,58.1591 277.5,65.5 Z"/></g>
<g><path style="opacity:0.987" fill="#fc4856" d="M 361.5,65.5 C 361.5,76.1667 361.5,86.8333 361.5,97.5C 361.746,103.559 361.413,109.559 360.5,115.5C 357.78,124.208 351.78,128.541 342.5,128.5C 339.591,128.615 336.925,127.949 334.5,126.5C 334.5,126.167 334.5,125.833 334.5,125.5C 337.676,122.489 339.843,118.822 341,114.5C 341.667,89.8333 341.667,65.1667 341,40.5C 339.448,36.1274 336.948,32.4608 333.5,29.5C 346.076,23.4145 355.243,26.7479 361,39.5C 361.5,48.1603 361.666,56.8269 361.5,65.5 Z"/></g>
<g><path style="opacity:0.991" fill="#fb5e71" d="M 164.5,29.5 C 167.982,32.4844 170.482,36.151 172,40.5C 172.667,64.8333 172.667,89.1667 172,113.5C 170.866,118.435 168.699,122.768 165.5,126.5C 165.167,126.5 164.833,126.5 164.5,126.5C 161.777,123.938 159.611,120.938 158,117.5C 156.671,110.908 156.171,104.241 156.5,97.5C 156.5,86.8333 156.5,76.1667 156.5,65.5C 156.334,56.8269 156.5,48.1603 157,39.5C 158.181,35.1555 160.681,31.8221 164.5,29.5 Z"/></g>
<g><path style="opacity:0.989" fill="#fa5f71" d="M 333.5,29.5 C 336.948,32.4608 339.448,36.1274 341,40.5C 341.667,65.1667 341.667,89.8333 341,114.5C 339.843,118.822 337.676,122.489 334.5,125.5C 329.493,123.19 326.66,119.19 326,113.5C 325.501,108.177 325.334,102.844 325.5,97.5C 325.5,97.1667 325.5,96.8333 325.5,96.5C 325.5,86.1667 325.5,75.8333 325.5,65.5C 325.334,56.8269 325.5,48.1603 326,39.5C 327.294,35.2385 329.794,31.9051 333.5,29.5 Z"/></g>
<g><path style="opacity:0.982" fill="#fc5e71" d="M 247.5,30.5 C 251.719,31.5484 254.553,34.2151 256,38.5C 256.667,64.5 256.667,90.5 256,116.5C 253.909,119.74 252.076,123.074 250.5,126.5C 250.167,126.5 249.833,126.5 249.5,126.5C 246.303,123.811 243.803,120.477 242,116.5C 241.5,110.175 241.334,103.842 241.5,97.5C 241.828,86.6536 241.494,75.9869 240.5,65.5C 240.334,57.8261 240.5,50.1594 241,42.5C 241.362,37.438 243.528,33.438 247.5,30.5 Z"/></g>
<g><path style="opacity:0.987" fill="#9facba" d="M 136.5,65.5 C 136.5,76.1667 136.5,86.8333 136.5,97.5C 128.493,97.3336 120.493,97.5003 112.5,98C 110.944,98.7202 109.944,99.8868 109.5,101.5C 108.503,122.994 108.169,144.66 108.5,166.5C 97.8333,166.5 87.1667,166.5 76.5,166.5C 76.3334,136.831 76.5,107.165 77,77.5C 78.7694,72.0648 82.2694,68.2315 87.5,66C 103.83,65.5001 120.163,65.3334 136.5,65.5 Z"/></g>
<g><path style="opacity:1" fill="#8899a5" d="M 136.5,65.5 C 143.167,65.5 149.833,65.5 156.5,65.5C 156.5,76.1667 156.5,86.8333 156.5,97.5C 150.167,97.5 143.833,97.5 137.5,97.5C 137.167,97.5 136.833,97.5 136.5,97.5C 136.5,86.8333 136.5,76.1667 136.5,65.5 Z"/></g>
<g><path style="opacity:1" fill="#a2aab7" d="M 192.5,65.5 C 202.167,65.5 211.833,65.5 221.5,65.5C 221.5,76.1667 221.5,86.8333 221.5,97.5C 211.833,97.5 202.167,97.5 192.5,97.5C 192.821,103.026 192.488,108.36 191.5,113.5C 191.17,97.3246 191.504,81.3246 192.5,65.5 Z"/></g>
<g><path style="opacity:1" fill="#8998a4" d="M 221.5,65.5 C 227.833,65.5 234.167,65.5 240.5,65.5C 241.494,75.9869 241.828,86.6536 241.5,97.5C 234.833,97.5 228.167,97.5 221.5,97.5C 221.5,86.8333 221.5,76.1667 221.5,65.5 Z"/></g>
<g><path style="opacity:1" fill="#9eabb9" d="M 277.5,65.5 C 287.167,65.5 296.833,65.5 306.5,65.5C 306.5,75.8333 306.5,86.1667 306.5,96.5C 312.833,96.5 319.167,96.5 325.5,96.5C 325.5,96.8333 325.5,97.1667 325.5,97.5C 319.167,97.5 312.833,97.5 306.5,97.5C 296.5,97.5 286.5,97.5 276.5,97.5C 276.172,86.6536 276.506,75.9869 277.5,65.5 Z"/></g>
<g><path style="opacity:1" fill="#8799a4" d="M 306.5,65.5 C 312.833,65.5 319.167,65.5 325.5,65.5C 325.5,75.8333 325.5,86.1667 325.5,96.5C 319.167,96.5 312.833,96.5 306.5,96.5C 306.5,86.1667 306.5,75.8333 306.5,65.5 Z"/></g>
<g><path style="opacity:1" fill="#9facb9" d="M 361.5,65.5 C 373.833,65.5 386.167,65.5 398.5,65.5C 402.762,67.9262 406.262,71.2595 409,75.5C 410.41,84.0836 410.91,92.7502 410.5,101.5C 409.636,100.312 408.636,99.1451 407.5,98C 392.17,97.5001 376.837,97.3334 361.5,97.5C 361.5,86.8333 361.5,76.1667 361.5,65.5 Z"/></g>
<g><path style="opacity:1" fill="#8899a5" d="M 398.5,65.5 C 409.505,65.3335 420.505,65.5002 431.5,66C 436.757,68.2563 440.257,72.0896 442,77.5C 442.5,122.499 442.667,167.499 442.5,212.5C 432.554,224.114 421.887,235.114 410.5,245.5C 410.5,197.5 410.5,149.5 410.5,101.5C 410.91,92.7502 410.41,84.0836 409,75.5C 406.262,71.2595 402.762,67.9262 398.5,65.5 Z"/></g>
<g><path style="opacity:1" fill="#feede5" d="M 136.5,97.5 C 136.833,97.5 137.167,97.5 137.5,97.5C 137.334,103.842 137.5,110.175 138,116.5C 143.46,128.16 152.293,131.493 164.5,126.5C 164.833,126.5 165.167,126.5 165.5,126.5C 167.925,127.949 170.591,128.615 173.5,128.5C 183.808,128.517 189.808,123.517 191.5,113.5C 192.488,108.36 192.821,103.026 192.5,97.5C 202.167,97.5 211.833,97.5 221.5,97.5C 220.861,105.382 221.694,113.049 224,120.5C 230.952,128.761 239.452,130.761 249.5,126.5C 249.833,126.5 250.167,126.5 250.5,126.5C 262.553,131.093 271.053,127.426 276,115.5C 276.499,109.509 276.666,103.509 276.5,97.5C 286.5,97.5 296.5,97.5 306.5,97.5C 306.334,103.842 306.5,110.175 307,116.5C 308.859,122.36 312.693,126.193 318.5,128C 323.94,128.636 329.273,128.136 334.5,126.5C 336.925,127.949 339.591,128.615 342.5,128.5C 351.78,128.541 357.78,124.208 360.5,115.5C 361.496,129.99 361.829,144.657 361.5,159.5C 317.499,159.333 273.499,159.5 229.5,160C 224.167,164.667 224.167,169.333 229.5,174C 274.165,174.5 318.832,174.667 363.5,174.5C 361.59,181.556 360.924,188.889 361.5,196.5C 317.832,196.333 274.165,196.5 230.5,197C 225.465,200.013 224.298,204.18 227,209.5C 227.903,210.701 229.069,211.535 230.5,212C 274.165,212.5 317.832,212.667 361.5,212.5C 360.924,220.111 361.59,227.444 363.5,234.5C 318.832,234.333 274.165,234.5 229.5,235C 224.257,239.588 224.257,244.255 229.5,249C 273.499,249.5 317.499,249.667 361.5,249.5C 361.666,254.511 361.499,259.511 361,264.5C 360.108,267.952 358.442,270.952 356,273.5C 331,298.5 306,323.5 281,348.5C 273.049,363.176 266.549,378.509 261.5,394.5C 262.038,400.863 265.372,403.029 271.5,401C 275.021,399.326 278.687,398.16 282.5,397.5C 281.431,400.408 281.264,403.408 282,406.5C 283.255,408.594 285.088,409.594 287.5,409.5C 300.002,405.499 312.336,400.999 324.5,396C 329.506,393.499 334.173,390.499 338.5,387C 346.035,379.298 353.702,371.798 361.5,364.5C 361.667,391.502 361.5,418.502 361,445.5C 359.988,448.202 358.488,450.535 356.5,452.5C 275.166,452.667 193.833,452.5 112.5,452C 110.951,450.786 109.785,449.286 109,447.5C 108.5,414.835 108.333,382.168 108.5,349.5C 111.716,342.067 115.216,334.734 119,327.5C 120.451,325.536 122.284,324.203 124.5,323.5C 132.08,322.534 139.747,322.201 147.5,322.5C 157.839,322.666 168.172,322.5 178.5,322C 182.307,320.86 184.807,318.36 186,314.5C 186.667,268.167 186.667,221.833 186,175.5C 184.613,171.279 181.779,168.612 177.5,167.5C 155.004,166.932 132.337,166.932 109.5,167.5C 109.5,145.5 109.5,123.5 109.5,101.5C 109.944,99.8868 110.944,98.7202 112.5,98C 120.493,97.5003 128.493,97.3336 136.5,97.5 Z"/></g>
<g><path style="opacity:1" fill="#ffdece" d="M 137.5,97.5 C 143.833,97.5 150.167,97.5 156.5,97.5C 156.171,104.241 156.671,110.908 158,117.5C 159.611,120.938 161.777,123.938 164.5,126.5C 152.293,131.493 143.46,128.16 138,116.5C 137.5,110.175 137.334,103.842 137.5,97.5 Z"/></g>
<g><path style="opacity:1" fill="#ffdece" d="M 221.5,97.5 C 228.167,97.5 234.833,97.5 241.5,97.5C 241.334,103.842 241.5,110.175 242,116.5C 243.803,120.477 246.303,123.811 249.5,126.5C 239.452,130.761 230.952,128.761 224,120.5C 221.694,113.049 220.861,105.382 221.5,97.5 Z"/></g>
<g><path style="opacity:1" fill="#ffdece" d="M 306.5,97.5 C 312.833,97.5 319.167,97.5 325.5,97.5C 325.334,102.844 325.501,108.177 326,113.5C 326.66,119.19 329.493,123.19 334.5,125.5C 334.5,125.833 334.5,126.167 334.5,126.5C 329.273,128.136 323.94,128.636 318.5,128C 312.693,126.193 308.859,122.36 307,116.5C 306.5,110.175 306.334,103.842 306.5,97.5 Z"/></g>
<g><path style="opacity:1" fill="#fedece" d="M 361.5,97.5 C 376.837,97.3334 392.17,97.5001 407.5,98C 408.636,99.1451 409.636,100.312 410.5,101.5C 410.5,149.5 410.5,197.5 410.5,245.5C 410.5,245.833 410.5,246.167 410.5,246.5C 401.5,254.833 392.833,263.5 384.5,272.5C 356.535,299.965 328.701,327.632 301,355.5C 293.536,368.432 287.703,382.099 283.5,396.5C 282.833,396.5 282.5,396.833 282.5,397.5C 278.687,398.16 275.021,399.326 271.5,401C 265.372,403.029 262.038,400.863 261.5,394.5C 266.549,378.509 273.049,363.176 281,348.5C 306,323.5 331,298.5 356,273.5C 358.442,270.952 360.108,267.952 361,264.5C 361.499,259.511 361.666,254.511 361.5,249.5C 368.108,248.715 370.608,245.048 369,238.5C 367.549,236.536 365.716,235.203 363.5,234.5C 361.59,227.444 360.924,220.111 361.5,212.5C 368.955,210.924 371.122,206.59 368,199.5C 366.266,197.549 364.099,196.549 361.5,196.5C 360.924,188.889 361.59,181.556 363.5,174.5C 369.027,172.779 370.86,169.112 369,163.5C 367.285,160.603 364.785,159.269 361.5,159.5C 361.829,144.657 361.496,129.99 360.5,115.5C 361.413,109.559 361.746,103.559 361.5,97.5 Z"/></g>
<g><path style="opacity:1" fill="#cfcfd3" d="M 109.5,101.5 C 109.5,123.5 109.5,145.5 109.5,167.5C 98.3206,167.828 87.3206,167.495 76.5,166.5C 87.1667,166.5 97.8333,166.5 108.5,166.5C 108.169,144.66 108.503,122.994 109.5,101.5 Z"/></g>
<g><path style="opacity:1" fill="#9eabb9" d="M 361.5,159.5 C 364.785,159.269 367.285,160.603 369,163.5C 370.86,169.112 369.027,172.779 363.5,174.5C 318.832,174.667 274.165,174.5 229.5,174C 224.167,169.333 224.167,164.667 229.5,160C 273.499,159.5 317.499,159.333 361.5,159.5 Z"/></g>
<g><path style="opacity:0.996" fill="#e9f5fe" d="M 76.5,166.5 C 87.3206,167.495 98.3206,167.828 109.5,167.5C 132.337,166.932 155.004,166.932 177.5,167.5C 167.828,167.334 158.161,167.5 148.5,168C 151,169.167 152.833,171 154,173.5C 154.667,220.833 154.667,268.167 154,315.5C 152.644,318.686 150.478,321.019 147.5,322.5C 139.747,322.201 132.08,322.534 124.5,323.5C 114.008,322.341 103.341,322.175 92.5,323C 91.0692,323.465 89.9025,324.299 89,325.5C 86.6258,329.75 84.1258,333.916 81.5,338C 78.2467,339.82 74.9133,339.987 71.5,338.5C 69.6799,334.86 67.8466,331.193 66,327.5C 64.786,325.951 63.286,324.785 61.5,324C 44.1667,323.667 26.8333,323.333 9.5,323C 4.9448,322.565 1.61147,320.398 -0.5,316.5C -0.5,268.5 -0.5,220.5 -0.5,172.5C 1.61218,169.937 4.27885,168.104 7.5,167C 30.4976,166.5 53.4976,166.333 76.5,166.5 Z"/></g>
<g><path style="opacity:1" fill="#d2e9fb" d="M 177.5,167.5 C 181.779,168.612 184.613,171.279 186,175.5C 186.667,221.833 186.667,268.167 186,314.5C 184.807,318.36 182.307,320.86 178.5,322C 168.172,322.5 157.839,322.666 147.5,322.5C 150.478,321.019 152.644,318.686 154,315.5C 154.667,268.167 154.667,220.833 154,173.5C 152.833,171 151,169.167 148.5,168C 158.161,167.5 167.828,167.334 177.5,167.5 Z"/></g>
<g><path style="opacity:0.989" fill="#7a8c97" d="M 485.5,178.5 C 492.898,188.749 493.398,199.416 487,210.5C 467.913,229.085 449.413,248.085 431.5,267.5C 431.167,267.5 430.833,267.5 430.5,267.5C 423.833,260.5 417.167,253.5 410.5,246.5C 410.5,246.167 410.5,245.833 410.5,245.5C 421.887,235.114 432.554,224.114 442.5,212.5C 452.298,203.202 461.965,193.702 471.5,184C 475.754,181.083 480.421,179.249 485.5,178.5 Z"/></g>
<g><path style="opacity:1" fill="#5d717a" d="M 485.5,178.5 C 498.348,178.71 507.014,184.71 511.5,196.5C 511.5,201.167 511.5,205.833 511.5,210.5C 510.379,212.741 509.213,215.075 508,217.5C 486.965,238.702 465.799,259.702 444.5,280.5C 439.833,276.5 435.5,272.167 431.5,267.5C 449.413,248.085 467.913,229.085 487,210.5C 493.398,199.416 492.898,188.749 485.5,178.5 Z"/></g>
<g><path style="opacity:1" fill="#a1adba" d="M 361.5,196.5 C 364.099,196.549 366.266,197.549 368,199.5C 371.122,206.59 368.955,210.924 361.5,212.5C 317.832,212.667 274.165,212.5 230.5,212C 229.069,211.535 227.903,210.701 227,209.5C 224.298,204.18 225.465,200.013 230.5,197C 274.165,196.5 317.832,196.333 361.5,196.5 Z"/></g>
<g><path style="opacity:1" fill="#2ba7fe" d="M 103.5,199.5 C 120.732,231.539 120.732,263.539 103.5,295.5C 96.5,298.167 89.5,298.167 82.5,295.5C 81.6971,294.577 81.5304,293.577 82,292.5C 104.249,280.483 113.582,261.817 110,236.5C 105.43,220.768 95.93,209.102 81.5,201.5C 81.8627,200.817 82.1961,200.15 82.5,199.5C 89.3982,196.872 96.3982,196.872 103.5,199.5 Z"/></g>
<g><path style="opacity:1" fill="#8ac9fe" d="M 80.5,199.5 C 80.0986,200.991 79.932,202.658 80,204.5C 64.5888,233.922 64.7555,263.255 80.5,292.5C 79.7573,293.182 79.0906,293.849 78.5,294.5C 50.6854,283.552 39.5188,263.218 45,233.5C 51.1718,216.16 63.0052,204.826 80.5,199.5 Z"/></g>
<g><path style="opacity:1" fill="#61b7ff" d="M 103.5,199.5 C 120.543,203.28 132.377,213.28 139,229.5C 146.522,255.608 139.022,276.108 116.5,291C 112.256,292.803 107.922,294.303 103.5,295.5C 120.732,263.539 120.732,231.539 103.5,199.5 Z"/></g>
<g><path style="opacity:1" fill="#60b7fe" d="M 80.5,199.5 C 81.1667,199.5 81.8333,199.5 82.5,199.5C 82.1961,200.15 81.8627,200.817 81.5,201.5C 95.93,209.102 105.43,220.768 110,236.5C 113.582,261.817 104.249,280.483 82,292.5C 81.5304,293.577 81.6971,294.577 82.5,295.5C 80.901,295.768 79.5676,295.434 78.5,294.5C 79.0906,293.849 79.7573,293.182 80.5,292.5C 64.7555,263.255 64.5888,233.922 80,204.5C 79.932,202.658 80.0986,200.991 80.5,199.5 Z"/></g>
<g><path style="opacity:1" fill="#88c8fe" d="M 92.5,214.5 C 104.31,236.946 104.477,259.612 93,282.5C 84.5805,266.774 82.2471,250.108 86,232.5C 87.4828,226.215 89.6495,220.215 92.5,214.5 Z"/></g>
<g><path style="opacity:1" fill="#9eabb9" d="M 363.5,234.5 C 365.716,235.203 367.549,236.536 369,238.5C 370.608,245.048 368.108,248.715 361.5,249.5C 317.499,249.667 273.499,249.5 229.5,249C 224.257,244.255 224.257,239.588 229.5,235C 274.165,234.5 318.832,234.333 363.5,234.5 Z"/></g>
<g><path style="opacity:1" fill="#fce25a" d="M 410.5,246.5 C 417.167,253.5 423.833,260.5 430.5,267.5C 421.445,275.554 413.111,284.221 405.5,293.5C 405.167,293.5 404.833,293.5 404.5,293.5C 397.833,286.5 391.167,279.5 384.5,272.5C 392.833,263.5 401.5,254.833 410.5,246.5 Z"/></g>
<g><path style="opacity:0.999" fill="#fad72e" d="M 430.5,267.5 C 430.833,267.5 431.167,267.5 431.5,267.5C 435.5,272.167 439.833,276.5 444.5,280.5C 443.833,281.5 443.167,282.5 442.5,283.5C 433.861,290.472 425.861,298.138 418.5,306.5C 413.833,302.5 409.5,298.167 405.5,293.5C 413.111,284.221 421.445,275.554 430.5,267.5 Z"/></g>
<g><path style="opacity:1" fill="#a2aebb" d="M 230.5,271.5 C 263.835,271.333 297.168,271.5 330.5,272C 335.224,274.435 336.724,278.269 335,283.5C 333.786,285.049 332.286,286.215 330.5,287C 297.167,287.667 263.833,287.667 230.5,287C 223.888,281.836 223.888,276.67 230.5,271.5 Z"/></g>
<g><path style="opacity:1" fill="#7a8c98" d="M 384.5,272.5 C 391.167,279.5 397.833,286.5 404.5,293.5C 374.701,322.798 345.035,352.298 315.5,382C 305.251,387.697 294.584,392.53 283.5,396.5C 287.703,382.099 293.536,368.432 301,355.5C 328.701,327.632 356.535,299.965 384.5,272.5 Z"/></g>
<g><path style="opacity:1" fill="#8899a5" d="M 442.5,283.5 C 442.667,346.501 442.5,409.501 442,472.5C 440.066,478.767 435.9,482.601 429.5,484C 418.505,484.5 407.505,484.667 396.5,484.5C 402.329,482.845 406.495,479.178 409,473.5C 410.37,465.236 410.87,456.903 410.5,448.5C 410.832,403.997 410.499,359.664 409.5,315.5C 412.806,312.86 415.806,309.86 418.5,306.5C 425.861,298.138 433.861,290.472 442.5,283.5 Z"/></g>
<g><path style="opacity:1" fill="#5e727b" d="M 404.5,293.5 C 404.833,293.5 405.167,293.5 405.5,293.5C 409.5,298.167 413.833,302.5 418.5,306.5C 415.806,309.86 412.806,312.86 409.5,315.5C 393.5,331.833 377.5,348.167 361.5,364.5C 353.702,371.798 346.035,379.298 338.5,387C 334.173,390.499 329.506,393.499 324.5,396C 312.336,400.999 300.002,405.499 287.5,409.5C 285.088,409.594 283.255,408.594 282,406.5C 281.264,403.408 281.431,400.408 282.5,397.5C 282.5,396.833 282.833,396.5 283.5,396.5C 294.584,392.53 305.251,387.697 315.5,382C 345.035,352.298 374.701,322.798 404.5,293.5 Z"/></g>
<g><path style="opacity:1" fill="#9facba" d="M 229.5,309.5 C 243.171,309.333 256.837,309.5 270.5,310C 274.212,312.513 275.378,316.013 274,320.5C 272.786,322.049 271.286,323.215 269.5,324C 256.167,324.667 242.833,324.667 229.5,324C 224.202,319.092 224.202,314.258 229.5,309.5 Z"/></g>
<g><path style="opacity:1" fill="#fedecf" d="M 409.5,315.5 C 410.499,359.664 410.832,403.997 410.5,448.5C 409.038,449.458 407.705,450.624 406.5,452C 389.837,452.5 373.17,452.667 356.5,452.5C 358.488,450.535 359.988,448.202 361,445.5C 361.5,418.502 361.667,391.502 361.5,364.5C 377.5,348.167 393.5,331.833 409.5,315.5 Z"/></g>
<g><path style="opacity:1" fill="#d2e8fb" d="M 124.5,323.5 C 122.284,324.203 120.451,325.536 119,327.5C 115.216,334.734 111.716,342.067 108.5,349.5C 105.274,354.947 102.274,360.613 99.5,366.5C 95.0361,370.461 90.5361,370.461 86,366.5C 83.0591,360.28 79.8924,354.28 76.5,348.5C 74.8333,345.167 73.1667,341.833 71.5,338.5C 74.9133,339.987 78.2467,339.82 81.5,338C 84.1258,333.916 86.6258,329.75 89,325.5C 89.9025,324.299 91.0692,323.465 92.5,323C 103.341,322.175 114.008,322.341 124.5,323.5 Z"/></g>
<g><path style="opacity:0.985" fill="#9facba" d="M 76.5,348.5 C 79.8924,354.28 83.0591,360.28 86,366.5C 90.5361,370.461 95.0361,370.461 99.5,366.5C 102.274,360.613 105.274,354.947 108.5,349.5C 108.333,382.168 108.5,414.835 109,447.5C 109.785,449.286 110.951,450.786 112.5,452C 193.833,452.5 275.166,452.667 356.5,452.5C 373.17,452.667 389.837,452.5 406.5,452C 407.705,450.624 409.038,449.458 410.5,448.5C 410.87,456.903 410.37,465.236 409,473.5C 406.495,479.178 402.329,482.845 396.5,484.5C 293.11,484.993 189.777,484.493 86.5,483C 81.5768,480.673 78.4101,476.84 77,471.5C 76.5,430.501 76.3333,389.501 76.5,348.5 Z"/></g>
<g><path style="opacity:1" fill="#a0adba" d="M 172.5,377.5 C 178.577,377.196 184.577,377.696 190.5,379C 196.779,382.946 202.779,387.279 208.5,392C 212.452,392.912 216.119,392.245 219.5,390C 224.167,386 228.833,382 233.5,378C 243.47,377.453 246.303,381.619 242,390.5C 237.167,394.667 232.333,398.833 227.5,403C 219.955,407.629 211.955,408.629 203.5,406C 197.556,402.389 191.889,398.389 186.5,394C 182.961,392.496 179.295,392.163 175.5,393C 170.5,397.333 165.5,401.667 160.5,406C 151.667,407.833 148.167,404.333 150,395.5C 156.822,388.496 164.322,382.496 172.5,377.5 Z"/></g>
</svg>
