<?xml version="1.0" encoding="UTF-8"?>
<!DOCTYPE svg PUBLIC "-//W3C//DTD SVG 1.1//EN" "http://www.w3.org/Graphics/SVG/1.1/DTD/svg11.dtd">
<svg xmlns="http://www.w3.org/2000/svg" version="1.1" width="512px" height="512px" style="shape-rendering:geometricPrecision; text-rendering:geometricPrecision; image-rendering:optimizeQuality; fill-rule:evenodd; clip-rule:evenodd" xmlns:xlink="http://www.w3.org/1999/xlink">
<g><path style="opacity:1" fill="#c7d2e4" d="M 68.5,-0.5 C 79.1667,-0.5 89.8333,-0.5 100.5,-0.5C 98.193,0.977392 96.3597,2.97739 95,5.5C 94.5001,18.8292 94.3334,32.1625 94.5,45.5C 83.6536,45.8278 72.9869,45.4944 62.5,44.5C 62.3335,32.4954 62.5001,20.4954 63,8.5C 63.8397,4.80736 65.673,1.80736 68.5,-0.5 Z"/></g>
<g><path style="opacity:0.999" fill="#e3e9f7" d="M 100.5,-0.5 C 213.167,-0.5 325.833,-0.5 438.5,-0.5C 441.2,1.04602 443.033,3.37935 444,6.5C 444.5,21.4963 444.667,36.4963 444.5,51.5C 432.642,57.6963 425.309,67.363 422.5,80.5C 420.419,79.3773 418.253,78.3773 416,77.5C 414.395,78.1007 413.062,79.1007 412,80.5C 408.727,86.7122 405.727,93.0456 403,99.5C 402.421,100.928 402.588,102.262 403.5,103.5C 402.312,104.364 401.145,105.364 400,106.5C 396.727,112.712 393.727,119.046 391,125.5C 390.333,127.167 390.333,128.833 391,130.5C 392.812,131.977 394.645,133.31 396.5,134.5C 383.133,162.565 369.799,190.565 356.5,218.5C 297.832,218.333 239.166,218.5 180.5,219C 174.925,224.115 175.258,228.781 181.5,233C 237.499,233.5 293.499,233.667 349.5,233.5C 343.713,247.742 337.379,261.742 330.5,275.5C 280.832,275.333 231.166,275.5 181.5,276C 175.258,280.219 174.925,284.885 180.5,290C 228.166,290.5 275.832,290.667 323.5,290.5C 316.871,305.412 309.871,320.078 302.5,334.5C 262.002,333.335 221.335,333.169 180.5,334C 174.925,339.115 175.258,343.781 181.5,348C 219.832,348.5 258.165,348.667 296.5,348.5C 292.167,357.833 287.833,367.167 283.5,376.5C 281.896,380.9 281.229,385.566 281.5,390.5C 248.165,390.333 214.832,390.5 181.5,391C 174.589,396.522 174.922,401.522 182.5,406C 214.832,406.5 247.165,406.667 279.5,406.5C 279.5,409.5 279.5,412.5 279.5,415.5C 276.696,429.904 275.529,444.571 276,459.5C 279.616,463.323 283.449,463.489 287.5,460C 296.339,450.328 305.339,440.828 314.5,431.5C 323.139,422.527 331.806,413.527 340.5,404.5C 374.894,330.713 409.56,257.046 444.5,183.5C 444.667,289.834 444.5,396.167 444,502.5C 442.895,505.937 440.728,508.437 437.5,510C 325.834,510.5 214.167,510.667 102.5,510.5C 99.2424,509.079 96.7424,506.746 95,503.5C 94.5001,490.171 94.3334,476.837 94.5,463.5C 101.108,462.715 103.608,459.048 102,452.5C 100.285,449.603 97.7845,448.269 94.5,448.5C 94.5,434.5 94.5,420.5 94.5,406.5C 102.93,403.978 104.596,399.145 99.5,392C 97.9751,390.991 96.3084,390.491 94.5,390.5C 94.5,376.5 94.5,362.5 94.5,348.5C 101.108,347.715 103.608,344.048 102,337.5C 100.429,335.077 98.2626,333.744 95.5,333.5C 94.1667,319.167 94.1667,304.833 95.5,290.5C 101.706,289.442 103.872,285.776 102,279.5C 100.059,277.13 97.5589,275.797 94.5,275.5C 94.5,261.5 94.5,247.5 94.5,233.5C 101.962,231.91 104.129,227.576 101,220.5C 99.4157,219.139 97.5824,218.472 95.5,218.5C 94.1667,204.167 94.1667,189.833 95.5,175.5C 101.575,174.24 103.741,170.573 102,164.5C 100.285,161.603 97.7845,160.269 94.5,160.5C 94.5,146.5 94.5,132.5 94.5,118.5C 101.955,116.924 104.122,112.59 101,105.5C 98.9481,104.207 96.7814,103.207 94.5,102.5C 94.5,88.5 94.5,74.5 94.5,60.5C 101.108,59.7146 103.608,56.048 102,49.5C 100.285,46.6026 97.7845,45.2693 94.5,45.5C 94.3334,32.1625 94.5001,18.8292 95,5.5C 96.3597,2.97739 98.193,0.977392 100.5,-0.5 Z"/></g>
<g><path style="opacity:0.972" fill="#576574" d="M 62.5,44.5 C 72.9869,45.4944 83.6536,45.8278 94.5,45.5C 97.7845,45.2693 100.285,46.6026 102,49.5C 103.608,56.048 101.108,59.7146 94.5,60.5C 83.6536,60.1722 72.9869,60.5056 62.5,61.5C 51.495,61.6665 40.495,61.4998 29.5,61C 25.4385,60.1089 23.4385,57.6089 23.5,53.5C 23.1809,48.9562 25.1809,46.1229 29.5,45C 40.495,44.5002 51.495,44.3335 62.5,44.5 Z"/></g>
<g><path style="opacity:1" fill="#ed5254" d="M 471.5,53.5 C 461.835,60.5084 456.002,69.8417 454,81.5C 464.296,86.4205 474.463,91.4205 484.5,96.5C 483.724,100.052 482.391,103.386 480.5,106.5C 465.34,100.223 450.34,93.5566 435.5,86.5C 431.291,84.2288 426.958,82.2288 422.5,80.5C 425.309,67.363 432.642,57.6963 444.5,51.5C 453.804,48.4561 462.804,49.1227 471.5,53.5 Z"/></g>
<g><path style="opacity:0.97" fill="#fe6a6a" d="M 471.5,53.5 C 485.343,62.5123 490.51,75.179 487,91.5C 486.626,93.4913 485.793,95.158 484.5,96.5C 474.463,91.4205 464.296,86.4205 454,81.5C 456.002,69.8417 461.835,60.5084 471.5,53.5 Z"/></g>
<g><path style="opacity:1" fill="#c7d1e4" d="M 94.5,60.5 C 94.5,74.5 94.5,88.5 94.5,102.5C 83.8333,102.5 73.1667,102.5 62.5,102.5C 62.5,88.8333 62.5,75.1667 62.5,61.5C 72.9869,60.5056 83.6536,60.1722 94.5,60.5 Z"/></g>
<g><path style="opacity:1" fill="#358def" d="M 422.5,80.5 C 426.958,82.2288 431.291,84.2288 435.5,86.5C 431.913,91.6567 430.08,97.3233 430,103.5C 446.174,112.17 462.674,120.17 479.5,127.5C 478.809,131.929 476.475,134.929 472.5,136.5C 455.838,128.836 439.171,121.169 422.5,113.5C 416.206,110.173 409.873,106.84 403.5,103.5C 402.588,102.262 402.421,100.928 403,99.5C 405.727,93.0456 408.727,86.7122 412,80.5C 413.062,79.1007 414.395,78.1007 416,77.5C 418.253,78.3773 420.419,79.3773 422.5,80.5 Z"/></g>
<g><path style="opacity:0.987" fill="#559ffd" d="M 435.5,86.5 C 450.34,93.5566 465.34,100.223 480.5,106.5C 481.848,107.601 483.348,108.601 485,109.5C 485.309,110.766 485.809,111.933 486.5,113C 484.264,117.97 481.93,122.804 479.5,127.5C 462.674,120.17 446.174,112.17 430,103.5C 430.08,97.3233 431.913,91.6567 435.5,86.5 Z"/></g>
<g><path style="opacity:0.987" fill="#586675" d="M 62.5,102.5 C 73.1667,102.5 83.8333,102.5 94.5,102.5C 96.7814,103.207 98.9481,104.207 101,105.5C 104.122,112.59 101.955,116.924 94.5,118.5C 83.8333,118.5 73.1667,118.5 62.5,118.5C 50.8286,118.667 39.1619,118.5 27.5,118C 22.1761,113.046 22.1761,108.046 27.5,103C 39.1619,102.5 50.8286,102.333 62.5,102.5 Z"/></g>
<g><path style="opacity:1" fill="#c8d2e5" d="M 129.5,102.5 C 137.253,102.104 144.92,102.604 152.5,104C 155.394,106.909 156.227,110.409 155,114.5C 153.681,116.487 151.848,117.654 149.5,118C 142.5,118.667 135.5,118.667 128.5,118C 121.643,112.322 121.977,107.155 129.5,102.5 Z"/></g>
<g><path style="opacity:1" fill="#c7d2e5" d="M 182.5,102.5 C 239.834,102.333 297.168,102.5 354.5,103C 360.019,104.504 362.186,108.004 361,113.5C 359.363,115.81 357.196,117.31 354.5,118C 296.833,118.667 239.167,118.667 181.5,118C 174.561,112.237 174.894,107.07 182.5,102.5 Z"/></g>
<g><path style="opacity:1" fill="#56a0fe" d="M 403.5,103.5 C 409.873,106.84 416.206,110.173 422.5,113.5C 420.952,117.598 419.119,121.598 417,125.5C 416.104,128.025 416.604,130.192 418.5,132C 435.06,139.115 451.06,146.949 466.5,155.5C 465.062,162.886 461.062,164.886 454.5,161.5C 444.81,156.323 434.81,151.657 424.5,147.5C 415.476,142.657 406.142,138.323 396.5,134.5C 394.645,133.31 392.812,131.977 391,130.5C 390.333,128.833 390.333,127.167 391,125.5C 393.727,119.046 396.727,112.712 400,106.5C 401.145,105.364 402.312,104.364 403.5,103.5 Z"/></g>
<g><path style="opacity:0.989" fill="#89c1fe" d="M 422.5,113.5 C 439.171,121.169 455.838,128.836 472.5,136.5C 473.511,138.402 473.678,140.402 473,142.5C 470.787,146.925 468.621,151.259 466.5,155.5C 451.06,146.949 435.06,139.115 418.5,132C 416.604,130.192 416.104,128.025 417,125.5C 419.119,121.598 420.952,117.598 422.5,113.5 Z"/></g>
<g><path style="opacity:1" fill="#c7d2e5" d="M 62.5,118.5 C 73.1667,118.5 83.8333,118.5 94.5,118.5C 94.5,132.5 94.5,146.5 94.5,160.5C 83.6536,160.828 72.9869,160.494 62.5,159.5C 62.5,145.833 62.5,132.167 62.5,118.5 Z"/></g>
<g><path style="opacity:1" fill="#f3b538" d="M 396.5,134.5 C 406.142,138.323 415.476,142.657 424.5,147.5C 389.285,224.265 353.785,300.932 318,377.5C 315.978,382.223 313.478,386.557 310.5,390.5C 301.855,386.512 293.188,382.512 284.5,378.5C 283.702,378.043 283.369,377.376 283.5,376.5C 287.833,367.167 292.167,357.833 296.5,348.5C 298.694,343.92 300.694,339.254 302.5,334.5C 309.871,320.078 316.871,305.412 323.5,290.5C 326.027,285.585 328.36,280.585 330.5,275.5C 337.379,261.742 343.713,247.742 349.5,233.5C 352.616,228.93 354.95,223.93 356.5,218.5C 369.799,190.565 383.133,162.565 396.5,134.5 Z"/></g>
<g><path style="opacity:0.998" fill="#fdca58" d="M 424.5,147.5 C 434.81,151.657 444.81,156.323 454.5,161.5C 451.359,168.923 448.026,176.256 444.5,183.5C 409.56,257.046 374.894,330.713 340.5,404.5C 330.489,400.161 320.489,395.827 310.5,391.5C 310.5,391.167 310.5,390.833 310.5,390.5C 313.478,386.557 315.978,382.223 318,377.5C 353.785,300.932 389.285,224.265 424.5,147.5 Z"/></g>
<g><path style="opacity:0.995" fill="#576574" d="M 62.5,159.5 C 72.9869,160.494 83.6536,160.828 94.5,160.5C 97.7845,160.269 100.285,161.603 102,164.5C 103.741,170.573 101.575,174.24 95.5,175.5C 84.3206,175.172 73.3206,175.505 62.5,176.5C 51.495,176.667 40.495,176.5 29.5,176C 25.4385,175.109 23.4385,172.609 23.5,168.5C 23.1182,163.43 25.4516,160.597 30.5,160C 41.1615,159.5 51.8281,159.333 62.5,159.5 Z"/></g>
<g><path style="opacity:1" fill="#c7d2e5" d="M 127.5,160.5 C 135.507,160.334 143.507,160.5 151.5,161C 156.812,165.761 156.812,170.428 151.5,175C 143.5,175.667 135.5,175.667 127.5,175C 122.236,170.131 122.236,165.298 127.5,160.5 Z"/></g>
<g><path style="opacity:1" fill="#c7d2e5" d="M 181.5,160.5 C 239.834,160.333 298.168,160.5 356.5,161C 362.998,165.671 362.998,170.338 356.5,175C 297.833,175.667 239.167,175.667 180.5,175C 174.99,169.73 175.323,164.897 181.5,160.5 Z"/></g>
<g><path style="opacity:1" fill="#c5d0e3" d="M 95.5,175.5 C 94.1667,189.833 94.1667,204.167 95.5,218.5C 84.3206,218.828 73.3206,218.495 62.5,217.5C 62.5,203.833 62.5,190.167 62.5,176.5C 73.3206,175.505 84.3206,175.172 95.5,175.5 Z"/></g>
<g><path style="opacity:0.994" fill="#576574" d="M 62.5,217.5 C 73.3206,218.495 84.3206,218.828 95.5,218.5C 97.5824,218.472 99.4157,219.139 101,220.5C 104.129,227.576 101.962,231.91 94.5,233.5C 83.8333,233.5 73.1667,233.5 62.5,233.5C 50.8286,233.667 39.1619,233.5 27.5,233C 24.484,231.471 23.1506,228.971 23.5,225.5C 23.3361,221.823 25.0028,219.323 28.5,218C 39.8284,217.5 51.1618,217.333 62.5,217.5 Z"/></g>
<g><path style="opacity:1" fill="#c7d2e5" d="M 127.5,218.5 C 135.507,218.334 143.507,218.5 151.5,219C 156.812,223.572 156.812,228.239 151.5,233C 143.833,233.667 136.167,233.667 128.5,233C 122.292,228.58 121.958,223.747 127.5,218.5 Z"/></g>
<g><path style="opacity:1" fill="#c7d2e5" d="M 356.5,218.5 C 354.95,223.93 352.616,228.93 349.5,233.5C 293.499,233.667 237.499,233.5 181.5,233C 175.258,228.781 174.925,224.115 180.5,219C 239.166,218.5 297.832,218.333 356.5,218.5 Z"/></g>
<g><path style="opacity:1" fill="#c7d2e5" d="M 62.5,233.5 C 73.1667,233.5 83.8333,233.5 94.5,233.5C 94.5,247.5 94.5,261.5 94.5,275.5C 83.8333,275.5 73.1667,275.5 62.5,275.5C 62.5,261.5 62.5,247.5 62.5,233.5 Z"/></g>
<g><path style="opacity:0.994" fill="#576574" d="M 62.5,275.5 C 73.1667,275.5 83.8333,275.5 94.5,275.5C 97.5589,275.797 100.059,277.13 102,279.5C 103.872,285.776 101.706,289.442 95.5,290.5C 84.3206,290.172 73.3206,290.505 62.5,291.5C 51.1618,291.667 39.8284,291.5 28.5,291C 23.2625,287.726 22.0958,283.226 25,277.5C 25.7504,276.874 26.5838,276.374 27.5,276C 39.1619,275.5 50.8286,275.333 62.5,275.5 Z"/></g>
<g><path style="opacity:1" fill="#c7d2e5" d="M 128.5,275.5 C 136.174,275.334 143.841,275.5 151.5,276C 156.812,280.761 156.812,285.428 151.5,290C 143.5,290.667 135.5,290.667 127.5,290C 122.068,284.761 122.401,279.928 128.5,275.5 Z"/></g>
<g><path style="opacity:1" fill="#c7d2e5" d="M 330.5,275.5 C 328.36,280.585 326.027,285.585 323.5,290.5C 275.832,290.667 228.166,290.5 180.5,290C 174.925,284.885 175.258,280.219 181.5,276C 231.166,275.5 280.832,275.333 330.5,275.5 Z"/></g>
<g><path style="opacity:1" fill="#c5d0e3" d="M 95.5,290.5 C 94.1667,304.833 94.1667,319.167 95.5,333.5C 84.3206,333.828 73.3206,333.495 62.5,332.5C 62.5,318.833 62.5,305.167 62.5,291.5C 73.3206,290.505 84.3206,290.172 95.5,290.5 Z"/></g>
<g><path style="opacity:0.995" fill="#576574" d="M 62.5,332.5 C 73.3206,333.495 84.3206,333.828 95.5,333.5C 98.2626,333.744 100.429,335.077 102,337.5C 103.608,344.048 101.108,347.715 94.5,348.5C 83.6536,348.172 72.9869,348.506 62.5,349.5C 51.8281,349.667 41.1615,349.5 30.5,349C 24.0362,347.244 21.8696,343.077 24,336.5C 25.3189,334.513 27.1523,333.346 29.5,333C 40.495,332.5 51.495,332.333 62.5,332.5 Z"/></g>
<g><path style="opacity:1" fill="#c7d2e5" d="M 127.5,333.5 C 135.507,333.334 143.507,333.5 151.5,334C 156.812,338.572 156.812,343.239 151.5,348C 143.5,348.667 135.5,348.667 127.5,348C 122.202,343.092 122.202,338.258 127.5,333.5 Z"/></g>
<g><path style="opacity:1" fill="#c7d2e4" d="M 302.5,334.5 C 300.694,339.254 298.694,343.92 296.5,348.5C 258.165,348.667 219.832,348.5 181.5,348C 175.258,343.781 174.925,339.115 180.5,334C 221.335,333.169 262.002,333.335 302.5,334.5 Z"/></g>
<g><path style="opacity:1" fill="#c7d2e5" d="M 94.5,348.5 C 94.5,362.5 94.5,376.5 94.5,390.5C 83.8333,390.5 73.1667,390.5 62.5,390.5C 62.5,376.833 62.5,363.167 62.5,349.5C 72.9869,348.506 83.6536,348.172 94.5,348.5 Z"/></g>
<g><path style="opacity:1" fill="#f1d4b1" d="M 283.5,376.5 C 283.369,377.376 283.702,378.043 284.5,378.5C 293.188,382.512 301.855,386.512 310.5,390.5C 310.5,390.833 310.5,391.167 310.5,391.5C 309.913,403.866 308.913,416.2 307.5,428.5C 298.167,424.167 288.833,419.833 279.5,415.5C 279.5,412.5 279.5,409.5 279.5,406.5C 279.906,401.091 280.573,395.758 281.5,390.5C 281.229,385.566 281.896,380.9 283.5,376.5 Z"/></g>
<g><path style="opacity:0.987" fill="#586675" d="M 62.5,390.5 C 73.1667,390.5 83.8333,390.5 94.5,390.5C 96.3084,390.491 97.9751,390.991 99.5,392C 104.596,399.145 102.93,403.978 94.5,406.5C 83.8333,406.5 73.1667,406.5 62.5,406.5C 50.8286,406.667 39.1619,406.5 27.5,406C 22.1761,400.954 22.1761,395.954 27.5,391C 39.1619,390.5 50.8286,390.333 62.5,390.5 Z"/></g>
<g><path style="opacity:1" fill="#c8d2e5" d="M 128.5,390.5 C 136.585,390.099 144.585,390.599 152.5,392C 155.394,394.909 156.227,398.409 155,402.5C 153.681,404.487 151.848,405.654 149.5,406C 142.833,406.667 136.167,406.667 129.5,406C 121.867,401.354 121.534,396.187 128.5,390.5 Z"/></g>
<g><path style="opacity:1" fill="#c7d2e5" d="M 281.5,390.5 C 280.573,395.758 279.906,401.091 279.5,406.5C 247.165,406.667 214.832,406.5 182.5,406C 174.922,401.522 174.589,396.522 181.5,391C 214.832,390.5 248.165,390.333 281.5,390.5 Z"/></g>
<g><path style="opacity:1" fill="#f8e3c6" d="M 310.5,391.5 C 320.489,395.827 330.489,400.161 340.5,404.5C 331.806,413.527 323.139,422.527 314.5,431.5C 312.046,430.773 309.713,429.773 307.5,428.5C 308.913,416.2 309.913,403.866 310.5,391.5 Z"/></g>
<g><path style="opacity:1" fill="#c7d1e4" d="M 62.5,406.5 C 73.1667,406.5 83.8333,406.5 94.5,406.5C 94.5,420.5 94.5,434.5 94.5,448.5C 83.6536,448.828 72.9869,448.494 62.5,447.5C 62.5,433.833 62.5,420.167 62.5,406.5 Z"/></g>
<g><path style="opacity:1" fill="#414d5c" d="M 279.5,415.5 C 288.833,419.833 298.167,424.167 307.5,428.5C 309.713,429.773 312.046,430.773 314.5,431.5C 305.339,440.828 296.339,450.328 287.5,460C 283.449,463.489 279.616,463.323 276,459.5C 275.529,444.571 276.696,429.904 279.5,415.5 Z"/></g>
<g><path style="opacity:0.972" fill="#576574" d="M 62.5,447.5 C 72.9869,448.494 83.6536,448.828 94.5,448.5C 97.7845,448.269 100.285,449.603 102,452.5C 103.608,459.048 101.108,462.715 94.5,463.5C 83.6536,463.172 72.9869,463.506 62.5,464.5C 51.495,464.667 40.495,464.5 29.5,464C 25.1809,462.877 23.1809,460.044 23.5,455.5C 23.4385,451.391 25.4385,448.891 29.5,448C 40.495,447.5 51.495,447.333 62.5,447.5 Z"/></g>
<g><path style="opacity:1" fill="#c7d2e5" d="M 94.5,463.5 C 94.3334,476.837 94.5001,490.171 95,503.5C 96.7424,506.746 99.2424,509.079 102.5,510.5C 91.495,510.667 80.495,510.5 69.5,510C 65.973,507.784 63.8064,504.617 63,500.5C 62.5001,488.505 62.3335,476.505 62.5,464.5C 72.9869,463.506 83.6536,463.172 94.5,463.5 Z"/></g>
</svg>
