<?xml version="1.0" encoding="UTF-8"?>
<!DOCTYPE svg PUBLIC "-//W3C//DTD SVG 1.1//EN" "http://www.w3.org/Graphics/SVG/1.1/DTD/svg11.dtd">
<svg xmlns="http://www.w3.org/2000/svg" version="1.1" width="24px" height="24px" style="shape-rendering:geometricPrecision; text-rendering:geometricPrecision; image-rendering:optimizeQuality; fill-rule:evenodd; clip-rule:evenodd" xmlns:xlink="http://www.w3.org/1999/xlink">
<g><path style="opacity:0.698" fill="#fefffe" d="M 17.5,8.5 C 17.5,7.83333 17.1667,7.5 16.5,7.5C 16.5,6.83333 16.1667,6.5 15.5,6.5C 15.5,5.83333 15.1667,5.5 14.5,5.5C 16.5068,0.28808 18.8401,0.28808 21.5,5.5C 20.7174,7.28818 19.3841,8.28818 17.5,8.5 Z"/></g>
<g><path style="opacity:0.835" fill="#fefffe" d="M 14.5,5.5 C 15.1667,5.5 15.5,5.83333 15.5,6.5C 16.1667,6.5 16.5,6.83333 16.5,7.5C 17.1667,7.5 17.5,7.83333 17.5,8.5C 14.7719,12.7372 11.4385,16.5706 7.5,20C 5.86586,20.4935 4.19919,20.6602 2.5,20.5C 2.33788,18.4727 2.50454,16.4727 3,14.5C 6.18544,10.4591 10.0188,7.45915 14.5,5.5 Z"/></g>
</svg>
