<?xml version="1.0" encoding="UTF-8"?>
<!DOCTYPE svg PUBLIC "-//W3C//DTD SVG 1.1//EN" "http://www.w3.org/Graphics/SVG/1.1/DTD/svg11.dtd">
<svg xmlns="http://www.w3.org/2000/svg" version="1.1" width="24px" height="24px" style="shape-rendering:geometricPrecision; text-rendering:geometricPrecision; image-rendering:optimizeQuality; fill-rule:evenodd; clip-rule:evenodd" xmlns:xlink="http://www.w3.org/1999/xlink">
<g><path style="opacity:0.949" fill="#fefffe" d="M 3.5,2.5 C 9.09345,2.19343 14.5934,2.52676 20,3.5C 20.4994,9.15688 20.6661,14.8236 20.5,20.5C 14.5,20.5 8.5,20.5 2.5,20.5C 2.21139,14.4093 2.54472,8.40926 3.5,2.5 Z M 10.5,9.5 C 12.045,10.2297 12.8784,11.563 13,13.5C 13.6543,12.3044 14.1543,12.3044 14.5,13.5C 12.5,17.5 10.5,17.5 8.5,13.5C 8.84569,12.3044 9.34569,12.3044 10,13.5C 10.49,12.2068 10.6567,10.8734 10.5,9.5 Z"/></g>
</svg>
