<?xml version="1.0" encoding="UTF-8"?>
<!DOCTYPE svg PUBLIC "-//W3C//DTD SVG 1.1//EN" "http://www.w3.org/Graphics/SVG/1.1/DTD/svg11.dtd">
<svg xmlns="http://www.w3.org/2000/svg" version="1.1" width="28px" height="28px" style="shape-rendering:geometricPrecision; text-rendering:geometricPrecision; image-rendering:optimizeQuality; fill-rule:evenodd; clip-rule:evenodd" xmlns:xlink="http://www.w3.org/1999/xlink">
<g><path style="opacity:0.697" fill="#fefffe" d="M 11.5,2.5 C 23.2142,2.70598 27.3809,8.37265 24,19.5C 18.6308,25.4227 12.7974,25.9227 6.5,21C 7.33333,20.1667 8.16667,19.3333 9,18.5C 13.2943,22.601 17.2943,22.2676 21,17.5C 23.3305,11.4932 21.3305,7.49322 15,5.5C 10.591,6.2438 7.75763,8.7438 6.5,13C 7.83333,13.3333 9.16667,13.6667 10.5,14C 8.92003,16.2951 6.92003,17.6284 4.5,18C 3.16667,16.6667 1.83333,15.3333 0.5,14C 1.44802,13.5172 2.44802,13.3505 3.5,13.5C 3.99208,8.15884 6.65875,4.49217 11.5,2.5 Z"/></g>
<g><path style="opacity:0.697" fill="#fefffe" d="M 13.5,8.5 C 15.1171,9.58935 15.9504,11.256 16,13.5C 17,14.1667 18,14.8333 19,15.5C 19.5908,16.4835 19.2575,17.1501 18,17.5C 16.5272,17.0969 15.1939,16.4303 14,15.5C 13.5034,13.1902 13.3367,10.8568 13.5,8.5 Z"/></g>
</svg>
